<svg xmlns="http://www.w3.org/2000/svg" viewBox="0 0 1920 1080">
  <defs>
    <radialGradient id="bgGrad" cx="50%" cy="20%" r="80%">
      <stop offset="0%" style="stop-color:#1a3a5c"/>
      <stop offset="50%" style="stop-color:#0a1628"/>
      <stop offset="100%" style="stop-color:#050d18"/>
    </radialGradient>
  </defs>
  <rect fill="url(#bgGrad)" width="1920" height="1080"/>

  <!-- Stars -->
  <circle cx="100" cy="50" r="1.5" fill="#fff" opacity="0.8"/>
  <circle cx="250" cy="120" r="1" fill="#fff" opacity="0.6"/>
  <circle cx="400" cy="80" r="2" fill="#fff" opacity="0.7"/>
  <circle cx="550" cy="200" r="1" fill="#fff" opacity="0.5"/>
  <circle cx="700" cy="100" r="1.5" fill="#fff" opacity="0.8"/>
  <circle cx="850" cy="150" r="1" fill="#fff" opacity="0.6"/>
  <circle cx="1000" cy="60" r="2" fill="#fff" opacity="0.9"/>
  <circle cx="1150" cy="180" r="1" fill="#fff" opacity="0.5"/>
  <circle cx="1300" cy="90" r="1.5" fill="#fff" opacity="0.7"/>
  <circle cx="1450" cy="140" r="1" fill="#fff" opacity="0.6"/>
  <circle cx="1600" cy="70" r="2" fill="#fff" opacity="0.8"/>
  <circle cx="1750" cy="160" r="1" fill="#fff" opacity="0.5"/>
  <circle cx="1850" cy="110" r="1.5" fill="#fff" opacity="0.7"/>

  <circle cx="150" cy="300" r="1" fill="#fff" opacity="0.6"/>
  <circle cx="350" cy="350" r="1.5" fill="#fff" opacity="0.7"/>
  <circle cx="600" cy="400" r="1" fill="#fff" opacity="0.5"/>
  <circle cx="900" cy="320" r="2" fill="#fff" opacity="0.8"/>
  <circle cx="1200" cy="380" r="1" fill="#fff" opacity="0.6"/>
  <circle cx="1500" cy="340" r="1.5" fill="#fff" opacity="0.7"/>
  <circle cx="1800" cy="400" r="1" fill="#fff" opacity="0.5"/>
</svg>
